<?xml version="1.0" encoding="iso-8859-1"?>
<svg enable-background="new 0 0 96 96" height="96px" id="delete" version="1.1" viewBox="0 0 96 96" width="96px" xml:space="preserve" xmlns="http://www.w3.org/2000/svg" xmlns:xlink="http://www.w3.org/1999/xlink">
    <path fill="#555555" d="M84,20c2.206,0,4,1.794,4,4v48c0,2.206-1.794,4-4,4H35.593L10.704,48l24.889-28H84 M84,12H32L0,48l32,36h52  c6.627,0,12-5.373,12-12V24C96,17.373,90.627,12,84,12L84,12z"/>
    <path fill="#555555" d="M65.657,48l8.485-8.485c1.562-1.562,1.562-4.095,0-5.657c-1.562-1.562-4.096-1.562-5.657,0L60,42.343l-8.485-8.485  c-1.562-1.562-4.095-1.562-5.657,0s-1.562,4.095,0,5.657L54.343,48l-8.485,8.485c-1.562,1.562-1.562,4.095,0,5.657  c1.562,1.562,4.095,1.562,5.657,0L60,53.657l8.485,8.485c1.562,1.562,4.095,1.562,5.657,0c1.562-1.562,1.562-4.096,0-5.657  L65.657,48z"/>
</svg>