<svg width="482.895" height="482.895" xmlns="http://www.w3.org/2000/svg">

 <g>
  <title>background</title>
  <rect fill="none" id="canvas_background" height="402" width="582" y="-1" x="-1"/>
 </g>
 <g>
  <title>Layer 1</title>
  <g id="svg_1">
   <g id="svg_2">
    <path fill="#555555" stroke-dasharray="5,5" stroke-width="0" id="svg_3" d="m0.216,0l0,227.168l227.168,0l0,-227.168l-227.168,0zm207.476,207.476l-187.783,0l0,-187.783l187.784,0l0,187.783l-0.001,0z"/>
   </g>
  </g>
  <g id="svg_4">
   <g id="svg_5">
    <path fill="#555555" id="svg_6" d="m0.216,255.726l0,227.168l227.168,0l0,-227.168l-227.168,0zm207.476,207.476l-187.783,0l0,-187.783l187.784,0l0,187.783l-0.001,0z"/>
   </g>
  </g>
  <g id="svg_7">
   <g id="svg_8">
    <rect fill="#555555" y="46" id="svg_9" height="19.692" width="113.294" x="256.384"/>
   </g>
  </g>
  <g id="svg_10">
   <g id="svg_11">
    <rect fill="#555555" id="svg_12" height="19.692" width="226.294" y="417.183" x="256.384"/>
   </g>
  </g>
  <g id="svg_13">
   <g id="svg_14">
    <rect fill="#555555" id="svg_15" height="19.692" width="113.294" y="301.402" x="256.384"/>
   </g>
  </g>
  <g id="svg_19">
   <g id="svg_20">
    <rect fill="#555555" id="svg_21" height="19.692" width="226.294" y="161.801" x="256.384"/>
   </g>
  </g>
  <g id="svg_22"/>
  <g id="svg_23"/>
  <g id="svg_24"/>
  <g id="svg_25"/>
  <g id="svg_26"/>
  <g id="svg_27"/>
  <g id="svg_28"/>
  <g id="svg_29"/>
  <g id="svg_30"/>
  <g id="svg_31"/>
  <g id="svg_32"/>
  <g id="svg_33"/>
  <g id="svg_34"/>
  <g id="svg_35"/>
  <g id="svg_36"/>
 </g>
</svg>
