<?xml version="1.0" encoding="utf-8"?>
<!-- Generator: Adobe Illustrator 16.0.0, SVG Export Plug-In . SVG Version: 6.00 Build 0)  -->
<!DOCTYPE svg PUBLIC "-//W3C//DTD SVG 1.1 Tiny//EN" "http://www.w3.org/Graphics/SVG/1.1/DTD/svg11-tiny.dtd">
<svg version="1.1" baseProfile="tiny" id="Layer_1" xmlns="http://www.w3.org/2000/svg" xmlns:xlink="http://www.w3.org/1999/xlink"
	 x="0px" y="0px" width="24px" height="24px" viewBox="0 0 24 24" xml:space="preserve">
<g>
	<g>
		<path style="fill:#555555;" d="M23,23.4H1c-0.221,0-0.4-0.18-0.4-0.4V1c0-0.221,0.18-0.4,0.4-0.4h22c0.221,0,0.4,0.18,0.4,0.4v22
			C23.4,23.221,23.221,23.4,23,23.4z M1.4,22.6H22.6V1.4H1.4V22.6z"/>
	</g>
	<g>
		<path style="fill:#555555;" d="M19.969,12.4H4.031c-0.221,0-0.4-0.18-0.4-0.4s0.18-0.4,0.4-0.4h15.938c0.221,0,0.4,0.18,0.4,0.4S20.189,12.4,19.969,12.4
			z"/>
	</g>
</g>
</svg>
