<?xml version="1.0" encoding="utf-8"?>
<!-- Generator: Adobe Illustrator 16.0.0, SVG Export Plug-In . SVG Version: 6.00 Build 0)  -->
<!DOCTYPE svg PUBLIC "-//W3C//DTD SVG 1.1 Tiny//EN" "http://www.w3.org/Graphics/SVG/1.1/DTD/svg11-tiny.dtd">
<svg version="1.1" baseProfile="tiny" id="Layer_1" xmlns="http://www.w3.org/2000/svg" xmlns:xlink="http://www.w3.org/1999/xlink"
	 x="0px" y="0px" width="24px" height="24px" viewBox="0 0 24 24" xml:space="preserve">
<g>
	<path style="fill:#555555;" d="M23,0.6H1c-0.221,0-0.4,0.18-0.4,0.4v22c0,0.221,0.18,0.4,0.4,0.4h22c0.221,0,0.4-0.18,0.4-0.4V1
		C23.4,0.779,23.221,0.6,23,0.6z M22.6,22.6H1.4V1.4H22.6V22.6z"/>
	<path style="fill:#555555;" d="M4.031,12.4H11.6v7.568c0,0.221,0.18,0.4,0.4,0.4s0.4-0.18,0.4-0.4V12.4h7.568c0.221,0,0.4-0.18,0.4-0.4s-0.18-0.4-0.4-0.4
		H12.4V4.031c0-0.221-0.18-0.4-0.4-0.4s-0.4,0.18-0.4,0.4V11.6H4.031c-0.221,0-0.4,0.18-0.4,0.4S3.811,12.4,4.031,12.4z"/>
</g>
</svg>
