<?xml version="1.0" encoding="iso-8859-1"?>
<!-- Generator: Adobe Illustrator 18.1.1, SVG Export Plug-In . SVG Version: 6.00 Build 0)  -->
<svg version="1.1" id="Capa_1" xmlns="http://www.w3.org/2000/svg" xmlns:xlink="http://www.w3.org/1999/xlink" x="0px" y="0px"
	 viewBox="0 0 255.636 255.636" style="enable-background:new 0 0 255.636 255.636;" xml:space="preserve">
<path style="fill:#555555;" d="M46.232,255.636h163.172c25.493,0,46.232-20.739,46.232-46.232V46.232
			C255.636,20.739,234.897,0,209.404,0H46.232C20.739,0,0,20.739,0,46.232v163.172C0,234.897,20.739,255.636,46.232,255.636z
			 M201.245,239.319H54.391v-18.248c0-9.578,4.759-18.487,12.722-23.839c6.483-4.351,20.821-5.716,31.285-6.706
			c2.605-0.245,5.058-0.479,7.245-0.734l1.523-0.179c11.389-1.343,29.915-1.349,41.304,0l1.534,0.179
			c2.181,0.256,4.629,0.49,7.239,0.734c10.465,0.995,24.802,2.355,31.285,6.706c7.957,5.352,12.717,14.261,12.717,23.839V239.319z
			 M16.317,46.232c0-16.497,13.418-29.915,29.915-29.915h163.172c16.497,0,29.915,13.418,29.915,29.915v163.172
			c0,13.663-9.219,25.194-21.756,28.756v-17.09c0-15.028-7.457-29.001-19.945-37.388c-9.921-6.657-25.95-8.18-38.835-9.404
			c-2.48-0.234-4.803-0.451-6.87-0.696l-1.534-0.18c-12.651-1.485-32.471-1.485-45.128,0l-1.523,0.18
			c-2.067,0.245-4.395,0.462-6.875,0.696c-12.885,1.224-28.914,2.741-38.835,9.404c-12.488,8.387-19.945,22.36-19.945,37.388v17.09
			c-12.537-3.563-21.756-15.093-21.756-28.756V46.232z"/>
		<path style="fill:#555555;" d="M126.121,161.176c32.237,0,58.47-28.729,58.47-64.034s-26.227-64.034-58.47-64.034
			s-58.47,28.724-58.47,64.034S93.878,161.176,126.121,161.176z M126.121,46.466c24.867,0,45.101,22.73,45.101,50.67
			s-20.233,50.67-45.101,50.67s-45.101-22.73-45.101-50.67C81.015,69.201,101.248,46.466,126.121,46.466z"/>
</svg>
