<?xml version="1.0" encoding="iso-8859-1"?>
<!-- Generator: Adobe Illustrator 18.0.0, SVG Export Plug-In . SVG Version: 6.00 Build 0)  -->
<!DOCTYPE svg PUBLIC "-//W3C//DTD SVG 1.1//EN" "http://www.w3.org/Graphics/SVG/1.1/DTD/svg11.dtd">
<svg xmlns="http://www.w3.org/2000/svg" xmlns:xlink="http://www.w3.org/1999/xlink" version="1.1" id="Capa_1" x="0px" y="0px" viewBox="0 0 59 59" style="enable-background:new 0 0 59 59;" xml:space="preserve" width="512px" height="512px">
<path d="M49,11.289v5.422C49,16.87,48.87,17,48.71,17H48V2h10c0.552,0,1-0.447,1-1s-0.448-1-1-1H47c-0.044,0-0.082,0.02-0.124,0.025  c-0.072,0.009-0.142,0.017-0.211,0.042c-0.066,0.024-0.122,0.06-0.18,0.096c-0.039,0.024-0.083,0.034-0.119,0.064L3.841,35.191  c-0.426,0.351-0.488,0.981-0.137,1.407c0.198,0.241,0.484,0.365,0.773,0.365c0.224,0,0.449-0.074,0.635-0.228L7,35.183V49H2.29  C1.027,49,0,50.027,0,51.289V59h59V9h-7.71C50.027,9,49,10.027,49,11.289z M41.29,17C40.027,17,39,18.027,39,19.289V25h-1V9.695  l8-6.578V17H41.29z M32.29,25C31.027,25,30,26.027,30,27.289v5.422C30,32.87,29.87,33,29.71,33H29V17.095l7-5.756V25H32.29z   M22.29,33C21.027,33,20,34.027,20,35.289v5.422C20,40.87,19.87,41,19.71,41H19V25.317l8-6.578V33H22.29z M9,33.539l8-6.578V41  h-4.71C11.027,41,10,42.027,10,43.289v5.422C10,48.87,9.87,49,9.71,49H9V33.539z M57,57H2v-5.711C2,51.13,2.13,51,2.29,51H9.71  c1.263,0,2.29-1.027,2.29-2.289v-5.422C12,43.13,12.13,43,12.29,43h7.421c1.263,0,2.29-1.027,2.29-2.289v-5.422  C22,35.13,22.13,35,22.29,35h7.421c1.263,0,2.29-1.027,2.29-2.289v-5.422C32,27.13,32.13,27,32.29,27H41v-7.711  C41,19.13,41.13,19,41.29,19h7.421c1.263,0,2.29-1.027,2.29-2.289v-5.422C51,11.13,51.13,11,51.29,11H57V57z" fill="#6EC89B"/>
<g>
</g>
<g>
</g>
<g>
</g>
<g>
</g>
<g>
</g>
<g>
</g>
<g>
</g>
<g>
</g>
<g>
</g>
<g>
</g>
<g>
</g>
<g>
</g>
<g>
</g>
<g>
</g>
<g>
</g>
</svg>
